# xmcd
#
# Track frame offsets: 
#        150
#        17895
#        37352
#        55839
#        75125
#        95044
#        114347
#        132304
#        151401
#        171548
#        196365
#        222237
#        241688
#        264716
#
# Disc length: 3728 seconds
#
# Revision: 3
# Processed by: cddbd v1.5.2PL0 Copyright (c) Steve Scherf et al.
# Submitted via: ExactAudioCopy v0.99pb5
#
DISCID=c20e8e0e
DTITLE=Udo Lindenberg - Stark Wie Zwei
DYEAR=2008
DGENRE=Rock
TTITLE0=Udo Lindenberg - Ich Zieh Meinen Hut
TTITLE1=Udo Lindenberg - Wenn Du Durchhängst
TTITLE2=Udo Lindenberg - Ganz Anders
TTITLE3=Udo Lindenberg - Was Hat Die Zeit Mit Uns Gemacht
TTITLE4=Udo Lindenberg - Mein Ding
TTITLE5=Udo Lindenberg - Stark Wie Zwei
TTITLE6=Udo Lindenberg - Der Deal
TTITLE7=Udo Lindenberg - Chubby Checker
TTITLE8=Udo Lindenberg - Der Greis Ist Heiss
TTITLE9=Udo Lindenberg - Woddy Woddy Wodka
TTITLE10=Udo Lindenberg - Nasses Gold
TTITLE11=Udo Lindenberg - Interview Mit Gott
TTITLE12=Udo Lindenberg - Verbotene Stadt
TTITLE13=Udo Lindenberg - Der Astronaut Muss Weiter
EXTD=YEAR: 2008
EXTT0=
EXTT1=
EXTT2=
EXTT3=
EXTT4=
EXTT5=
EXTT6=
EXTT7=
EXTT8=
EXTT9=
EXTT10=
EXTT11=
EXTT12=
EXTT13=
PLAYORDER=
